#define carriage_return_width 16
#define carriage_return_height 16
static char carriage_return_bits[] = {
   0x00, 0x00, 0x00, 0x38, 0x00, 0x38, 0x60, 0x38, 0x70, 0x38, 0x78, 0x38,
   0x7c, 0x3c, 0xfe, 0x1f, 0xfe, 0x1f, 0xfc, 0x07, 0x78, 0x00, 0x70, 0x00,
   0x60, 0x00, 0x00, 0x00, 0xff, 0xff, 0xff, 0xff};
