#define nexus_icon_width 64
#define nexus_icon_height 64
static char nexus_icon_bits[] = {
   0x00, 0x00, 0x00, 0x00, 0x00, 0x00, 0x00, 0x00, 0x00, 0x00, 0x00, 0x00,
   0x00, 0x00, 0x00, 0x00, 0x00, 0x00, 0x00, 0x00, 0x00, 0x00, 0x00, 0x00,
   0x00, 0x00, 0xc0, 0xff, 0xff, 0x00, 0x00, 0x00, 0x00, 0x00, 0x78, 0x00,
   0x80, 0x07, 0x00, 0x00, 0x00, 0x00, 0x0f, 0x00, 0x00, 0x3c, 0x00, 0x00,
   0x00, 0xe0, 0x01, 0x00, 0x00, 0xd0, 0x00, 0x00, 0x00, 0x38, 0x00, 0x00,
   0x00, 0x80, 0x00, 0x00, 0x00, 0x0c, 0x00, 0x00, 0x00, 0x00, 0x03, 0x00,
   0x00, 0x06, 0x00, 0x00, 0x00, 0x00, 0x0c, 0x00, 0x00, 0x01, 0x00, 0x00,
   0x00, 0x00, 0x18, 0x00, 0xc0, 0x00, 0x00, 0x00, 0x00, 0x00, 0x70, 0x00,
   0x60, 0x00, 0x00, 0x00, 0x00, 0x00, 0xc0, 0x00, 0x10, 0x00, 0x00, 0x00,
   0x00, 0x00, 0x80, 0x00, 0x90, 0xc3, 0xfd, 0x7b, 0xfc, 0x39, 0xaf, 0x01,
   0x08, 0x87, 0x18, 0x72, 0xc8, 0x90, 0x31, 0x01, 0x08, 0x87, 0x18, 0xe2,
   0xc4, 0x90, 0x21, 0x02, 0x04, 0x8d, 0x98, 0xc0, 0xc3, 0x90, 0x03, 0x06,
   0x04, 0x99, 0xf8, 0x80, 0xc1, 0x10, 0x0f, 0x04, 0x04, 0xb9, 0x98, 0x80,
   0xc3, 0x10, 0x1c, 0x04, 0x04, 0xf1, 0x18, 0x42, 0xc7, 0x10, 0x38, 0x08,
   0x04, 0xe1, 0x18, 0x22, 0xce, 0x90, 0x30, 0x08, 0x04, 0xc1, 0x18, 0x13,
   0xdc, 0x99, 0x31, 0x18, 0x84, 0x83, 0xfc, 0x3b, 0xbe, 0x8f, 0x1f, 0x10,
   0x04, 0x00, 0x00, 0x00, 0x00, 0x00, 0x00, 0x10, 0x04, 0x00, 0x00, 0x00,
   0x00, 0x00, 0x00, 0x20, 0x0c, 0x00, 0x00, 0x00, 0x00, 0x00, 0x00, 0x30,
   0x08, 0x00, 0x00, 0x00, 0x00, 0x10, 0x00, 0x10, 0x18, 0x00, 0x00, 0x00,
   0x00, 0x10, 0x00, 0x18, 0x10, 0x00, 0x00, 0x0c, 0x00, 0x18, 0x00, 0x18,
   0x70, 0x00, 0x00, 0x02, 0x00, 0x08, 0x00, 0x1c, 0xc0, 0x07, 0x80, 0x01,
   0x00, 0x04, 0x80, 0x13, 0x00, 0x0c, 0x40, 0x00, 0x00, 0x02, 0xfc, 0x14,
   0x00, 0xf8, 0x20, 0x00, 0x00, 0xff, 0x97, 0x1d, 0x00, 0x80, 0x1f, 0x00,
   0x00, 0x97, 0x24, 0x09, 0x00, 0x00, 0x08, 0x00, 0x80, 0xa4, 0x29, 0x0f,
   0x00, 0x00, 0x18, 0x00, 0xc0, 0x64, 0x51, 0x06, 0x00, 0x00, 0x30, 0x00,
   0x40, 0x4c, 0x92, 0x06, 0x00, 0x00, 0xe0, 0x01, 0x30, 0x88, 0xb7, 0x03,
   0x00, 0x00, 0x00, 0x7f, 0x18, 0x38, 0x65, 0x03, 0x00, 0x00, 0x00, 0xc0,
   0x0f, 0x60, 0xc9, 0x01, 0x00, 0x00, 0x00, 0x00, 0x14, 0xc0, 0x7f, 0x00,
   0x00, 0x00, 0x00, 0x00, 0xec, 0x40, 0x00, 0x00, 0x00, 0x00, 0x00, 0x00,
   0x18, 0x43, 0x00, 0x00, 0x00, 0x00, 0x00, 0x00, 0x30, 0x42, 0x00, 0x00,
   0x00, 0x00, 0x00, 0x00, 0xc0, 0x84, 0x00, 0x00, 0x00, 0x00, 0x00, 0x00,
   0x00, 0x85, 0x00, 0x00, 0x00, 0x00, 0x00, 0x00, 0x00, 0x8e, 0x01, 0x00,
   0x00, 0x00, 0x00, 0x00, 0x00, 0x08, 0x01, 0x00, 0x00, 0x00, 0x00, 0x00,
   0x00, 0x08, 0x03, 0x00, 0x00, 0x00, 0x00, 0x00, 0x00, 0x18, 0x06, 0x00,
   0x00, 0x00, 0x00, 0x00, 0x00, 0x10, 0x04, 0x00, 0x00, 0x00, 0x00, 0x00,
   0x00, 0x20, 0x18, 0x00, 0x00, 0x00, 0x00, 0x00, 0x00, 0x20, 0x60, 0x00,
   0x00, 0x00, 0x00, 0x00, 0x00, 0xc0, 0xc0, 0x00, 0x00, 0x00, 0x00, 0x00,
   0x00, 0x80, 0x80, 0x00, 0x00, 0x00, 0x00, 0x00, 0x00, 0x00, 0x01, 0x00,
   0x00, 0x00, 0x00, 0x00, 0x00, 0x00, 0x06, 0x00, 0x00, 0x00, 0x00, 0x00,
   0x00, 0x00, 0x00, 0x00, 0x00, 0x00, 0x00, 0x00, 0x00, 0x00, 0x00, 0x00,
   0x00, 0x00, 0x00, 0x00, 0x00, 0x00, 0x00, 0x00, 0x00, 0x00, 0x00, 0x00,
   0x00, 0x00, 0x00, 0x00, 0x00, 0x00, 0x00, 0x00, 0x00, 0x00, 0x00, 0x00,
   0x00, 0x00, 0x00, 0x00, 0x00, 0x00, 0x00, 0x00};
